# xmcd
#
# Track frame offsets:
#	150
#	8610
#	20903
#	30818
#	39488
#	48946
#	58029
#	67629
#	77244
#	88239
#	97674
#	107379
#
# Disc length: 1526 seconds
#
# Revision: 1
# Processed by: cddbd v1.5.2PL0 Copyright (c) Steve Scherf et al.
# Submitted via: audiograbber 1.83.01
#
DISCID=7d05f40c
DTITLE=Chubby Wise - Sincerely Yours
DYEAR=1974
DGENRE=Bluegrass
TTITLE0=Casey Jones
TTITLE1=A Fool Such As I
TTITLE2=I'm Looking Over A Four Leaf Clover
TTITLE3=Sidewalk Waltz
TTITLE4=A Shanty In Old Shantytown
TTITLE5=I Love You Truly
TTITLE6=Molly Darlin'
TTITLE7=John Henry
TTITLE8=Trouble In Mind
TTITLE9=Third Party
TTITLE10=Somebody Stole My Gal
TTITLE11=I Only Want A Buddy
EXTD=I made this CD from one of my LP's
EXTT0=
EXTT1=
EXTT2=
EXTT3=
EXTT4=
EXTT5=
EXTT6=
EXTT7=
EXTT8=
EXTT9=
EXTT10=
EXTT11=
PLAYORDER=
